<?xml version="1.0" encoding="UTF-8"?> <svg xmlns="http://www.w3.org/2000/svg" id="_Слой_1" data-name="Слой 1" version="1.1" viewBox="0 0 2834.65 2834.65"><defs><style> .cls-1 { fill: #fff; stroke-width: 0px; } </style></defs><g><path class="cls-1" d="M403.28,2131.77v-107.31h17.53v18.58l-.59,20.93,1.48,20.93v46.87h-18.42ZM446.9,2104.21c-6.38,0-12.21-1.48-17.47-4.42-5.25-2.95-9.43-7.4-12.52-13.34-3.1-5.95-4.65-13.49-4.65-22.62s1.49-16.8,4.5-22.7c3-5.9,7.1-10.29,12.31-13.19,5.2-2.9,11.15-4.35,17.83-4.35,7.76,0,14.62,1.68,20.57,5.01,5.94,3.34,10.66,8.02,14.15,14.01s5.24,13.07,5.24,21.23-1.75,15.25-5.24,21.3c-3.49,6.04-8.21,10.73-14.15,14.08-5.95,3.34-12.8,5.01-20.57,5.01ZM444.84,2088.43c4.42,0,8.37-.98,11.86-2.95,3.48-1.96,6.26-4.81,8.33-8.55,2.06-3.73,3.09-8.1,3.09-13.11s-1.03-9.51-3.09-13.19c-2.07-3.69-4.85-6.51-8.33-8.48-3.49-1.96-7.44-2.95-11.86-2.95s-8.41.99-11.94,2.95-6.34,4.79-8.4,8.48c-2.07,3.68-3.1,8.08-3.1,13.19s1.03,9.38,3.1,13.11c2.06,3.73,4.86,6.58,8.4,8.55,3.53,1.97,7.51,2.95,11.94,2.95Z"></path><path class="cls-1" d="M541.83,2104.21c-8.75,0-16.39-1.75-22.93-5.24-6.53-3.48-11.59-8.28-15.18-14.36-3.59-6.1-5.38-13.03-5.38-20.78s1.75-14.82,5.23-20.86c3.49-6.04,8.3-10.79,14.45-14.23,6.14-3.44,13.14-5.16,21-5.16s14.49,1.68,20.49,5.01c5.99,3.34,10.71,8.06,14.15,14.16,3.44,6.09,5.16,13.26,5.16,21.51,0,.79-.02,1.68-.07,2.66s-.12,1.92-.22,2.8h-65.6v-12.23h55.86l-7.22,3.83c.1-4.52-.83-8.49-2.81-11.94-1.96-3.44-4.64-6.14-8.03-8.1-3.39-1.96-7.3-2.95-11.72-2.95s-8.48.99-11.86,2.95c-3.39,1.96-6.04,4.69-7.96,8.18-1.91,3.49-2.87,7.59-2.87,12.31v2.94c0,4.72,1.09,8.9,3.25,12.53,2.16,3.64,5.2,6.44,9.14,8.4,3.93,1.97,8.45,2.95,13.56,2.95,4.43,0,8.41-.69,11.94-2.07,3.54-1.37,6.69-3.53,9.43-6.49l9.88,11.35c-3.54,4.13-7.99,7.3-13.34,9.51-5.36,2.21-11.48,3.32-18.35,3.32Z"></path><path class="cls-1" d="M599.02,2103.17v-78.71h19.31l31.69,55.86h-7.67l33.31-55.86h17.25l.15,78.71h-16.66v-58.96l2.94,1.92-29.48,48.79h-7.96l-29.62-50.12,3.53-.89v59.26h-16.8Z"></path><path class="cls-1" d="M752.89,2104.21c-8.06,0-15.23-1.75-21.52-5.24-6.29-3.48-11.26-8.28-14.89-14.36-3.64-6.1-5.45-13.03-5.45-20.78s1.82-14.82,5.45-20.86c3.63-6.04,8.6-10.79,14.89-14.23,6.29-3.44,13.46-5.16,21.52-5.16s15.4,1.72,21.74,5.16c6.34,3.44,11.3,8.16,14.89,14.16,3.59,5.99,5.38,12.97,5.38,20.93s-1.8,14.69-5.38,20.78c-3.59,6.09-8.55,10.88-14.89,14.36-6.34,3.49-13.58,5.24-21.74,5.24ZM752.89,2088.43c4.52,0,8.55-.98,12.09-2.95,3.53-1.96,6.31-4.81,8.32-8.55s3.02-8.1,3.02-13.11-1.01-9.51-3.02-13.19c-2.01-3.69-4.79-6.51-8.32-8.48-3.54-1.96-7.52-2.95-11.94-2.95s-8.53.99-12.01,2.95c-3.49,1.96-6.27,4.79-8.33,8.48-2.07,3.68-3.1,8.08-3.1,13.19s1.03,9.38,3.1,13.11c2.06,3.73,4.84,6.58,8.33,8.55,3.48,1.97,7.44,2.95,11.86,2.95Z"></path><path class="cls-1" d="M813.03,2103.17v-78.71h18.42v31.99h39.65v-31.99h18.43v78.71h-18.43v-31.1h-39.65v31.1h-18.42Z"></path><path class="cls-1" d="M930.65,2103.17v-67.51l4.28,4.42h-31.99v-15.62h73.7v15.62h-31.84l4.27-4.42v67.51h-18.43Z"></path><path class="cls-1" d="M1064.98,2104.65c-7.17,0-13.62-1.18-19.31-3.54-5.7-2.35-10.17-5.6-13.41-9.73-3.24-4.13-4.86-8.89-4.86-14.3,0-4.92,1.08-9.34,3.24-13.26,2.16-3.93,5.6-7.69,10.32-11.28,4.72-3.59,10.76-7.19,18.13-10.83,5.79-2.85,10.33-5.36,13.64-7.52,3.29-2.16,5.6-4.22,6.92-6.19,1.33-1.96,1.99-4.02,1.99-6.18,0-2.95-1.02-5.33-3.09-7.16-2.07-1.82-5.01-2.72-8.84-2.72-4.13,0-7.35,1.01-9.66,3.01-2.31,2.01-3.47,4.65-3.47,7.89,0,1.68.32,3.3.96,4.86.63,1.58,1.79,3.34,3.46,5.31,1.68,1.97,4.08,4.47,7.23,7.52l54.54,52.33-10.18,11.94-58.95-56.6c-3.34-3.25-6.04-6.24-8.11-9-2.06-2.74-3.53-5.43-4.42-8.03-.89-2.6-1.33-5.28-1.33-8.03,0-4.81,1.23-9.06,3.69-12.75,2.45-3.68,5.94-6.53,10.47-8.55,4.52-2.01,9.77-3.02,15.77-3.02,5.6,0,10.44.91,14.51,2.73,4.08,1.82,7.28,4.42,9.59,7.81,2.3,3.4,3.46,7.45,3.46,12.17,0,4.13-1.02,7.93-3.09,11.42s-5.28,6.81-9.66,9.95c-4.37,3.14-10.2,6.44-17.47,9.87-5.4,2.65-9.67,5.16-12.82,7.51-3.15,2.36-5.41,4.72-6.78,7.08-1.38,2.35-2.07,4.96-2.07,7.81s.86,5.36,2.58,7.52c1.72,2.16,4.15,3.86,7.3,5.08,3.14,1.23,6.83,1.85,11.06,1.85,6.29,0,12.02-1.41,17.18-4.2,5.16-2.81,9.5-7,13.04-12.6,3.53-5.6,6.09-12.53,7.66-20.78l14.89,4.86c-2.06,9.93-5.63,18.45-10.68,25.57-5.06,7.13-11.28,12.61-18.65,16.44-7.37,3.83-15.62,5.75-24.76,5.75Z"></path><path class="cls-1" d="M1171.42,2120.72v-33.17h95.07v33.17h-17.25v-17.54h-60.73v17.54h-17.09ZM1236.42,2094.63v-54.54h-30.21l-.44,12.68c-.2,4.52-.5,8.87-.89,13.04s-1.02,8.01-1.91,11.49c-.89,3.49-2.16,6.37-3.84,8.62-1.67,2.27-3.88,3.73-6.63,4.42l-18.28-2.8c2.95,0,5.33-.96,7.15-2.87,1.82-1.92,3.25-4.57,4.28-7.96,1.02-3.4,1.79-7.28,2.28-11.65.49-4.38.83-8.92,1.02-13.64l1.03-26.97h64.86v70.16h-18.43Z"></path><path class="cls-1" d="M1282.99,2103.17v-78.71h18.42v51.88l43.48-51.88h16.8v78.71h-18.43v-51.88l-43.34,51.88h-16.94Z"></path><path class="cls-1" d="M1392.58,2102.36c-5.85-1.42-11.13-3.47-15.85-6.12l5.16-13.7c3.84,2.16,8.15,3.83,12.98,5.01,4.81,1.18,9.63,1.77,14.44,1.77,4.13,0,7.67-.42,10.61-1.26,2.94-.83,5.24-2.08,6.85-3.75,1.62-1.68,2.43-3.59,2.43-5.75,0-3.14-1.35-5.53-4.05-7.15-2.71-1.62-6.57-2.43-11.58-2.43h-15.18v-12.38h13.71c3.14,0,5.82-.35,8.02-1.03,2.21-.69,3.91-1.72,5.09-3.09,1.18-1.38,1.77-3,1.77-4.86s-.72-3.52-2.14-4.94c-1.43-1.42-3.47-2.5-6.12-3.24-2.65-.74-5.84-1.11-9.58-1.11-3.93,0-7.98.5-12.16,1.48s-8.42,2.41-12.75,4.27l-4.72-13.56c5.01-2.26,9.9-4,14.66-5.24,4.77-1.22,9.51-1.88,14.23-1.99,7.17-.3,13.57.44,19.17,2.21,5.59,1.77,10.02,4.33,13.26,7.66,3.24,3.34,4.86,7.28,4.86,11.79,0,3.73-1.16,7.1-3.47,10.1-2.31,3-5.45,5.33-9.43,7s-8.53,2.5-13.64,2.5l.59-3.98c8.75,0,15.62,1.75,20.63,5.24,5.01,3.48,7.52,8.22,7.52,14.22,0,4.82-1.62,9.07-4.86,12.75-3.25,3.69-7.69,6.57-13.34,8.62-5.65,2.07-12.12,3.1-19.38,3.1-5.99,0-11.92-.71-17.76-2.14Z"></path><path class="cls-1" d="M1489.93,2104.21c-5.9,0-11.06-1.01-15.48-3.02s-7.83-4.81-10.24-8.41c-2.41-3.58-3.61-7.63-3.61-12.16s1.05-8.4,3.17-11.93c2.11-3.54,5.58-6.34,10.39-8.41,4.81-2.06,11.2-3.09,19.17-3.09h22.84v12.23h-21.52c-6.29,0-10.52,1.02-12.67,3.02-2.16,2.01-3.25,4.5-3.25,7.44,0,3.34,1.33,6,3.99,7.96,2.65,1.96,6.33,2.94,11.05,2.94s8.57-1.02,12.17-3.09c3.59-2.07,6.17-5.11,7.74-9.14l3.09,11.06c-1.77,4.62-4.93,8.2-9.51,10.76-4.57,2.55-10.34,3.83-17.32,3.83ZM1514.69,2103.17v-15.92l-1.02-3.39v-27.86c0-5.4-1.62-9.61-4.86-12.6-3.25-3-8.16-4.5-14.75-4.5-4.42,0-8.76.69-13.04,2.07-4.27,1.38-7.89,3.29-10.83,5.75l-7.23-13.42c4.23-3.24,9.27-5.67,15.11-7.3,5.84-1.62,11.92-2.43,18.2-2.43,11.39,0,20.22,2.73,26.45,8.18,6.24,5.45,9.36,13.88,9.36,25.28v46.13h-17.4Z"></path><path class="cls-1" d="M1554.94,2103.17v-78.71h18.42v51.88l43.48-51.88h16.8v78.71h-18.43v-51.88l-43.34,51.88h-16.94ZM1593.11,2015.18c-7.86,0-13.9-1.84-18.13-5.53-4.23-3.68-6.39-9.06-6.49-16.14h12.24c.1,3.53,1.2,6.34,3.32,8.4,2.11,2.07,5.08,3.1,8.91,3.1s6.71-1.03,8.92-3.1c2.21-2.06,3.37-4.86,3.47-8.4h12.53c-.1,7.08-2.29,12.45-6.57,16.14-4.27,3.69-10.34,5.53-18.2,5.53Z"></path><path class="cls-1" d="M1658.41,2103.17v-78.71h18.42v31.99h39.65v-31.99h18.43v78.71h-18.43v-31.1h-39.65v31.1h-18.42Z"></path><path class="cls-1" d="M1800.34,2103.17v-78.71h18.42v78.71h-18.42ZM1813.31,2071.63v-15.33h26.68v15.33h-26.68ZM1845.15,2066.03l-17.25-2.06,28.89-39.51h19.75l-31.4,41.57ZM1856.79,2103.17l-28.45-37.74,15.03-9.28,35.09,47.02h-21.67Z"></path><path class="cls-1" d="M1891.44,2103.17v-78.71h38.46c9.54,0,17.02,1.77,22.48,5.31s8.18,8.55,8.18,15.03-2.55,11.38-7.66,14.96c-5.12,3.59-11.89,5.38-20.34,5.38l2.21-4.57c9.54,0,16.63,1.75,21.3,5.24,4.66,3.48,7,8.57,7,15.25s-2.61,12.41-7.82,16.29c-5.2,3.88-13.11,5.82-23.73,5.82h-40.09ZM1908.97,2057.33h19.31c4.72,0,8.28-.86,10.68-2.58s3.61-4.15,3.61-7.3-1.21-5.65-3.61-7.23-5.97-2.35-10.68-2.35h-19.31v19.45ZM1908.97,2089.76h21.08c5.01,0,8.8-.82,11.35-2.43,2.55-1.62,3.83-4.11,3.83-7.45,0-3.53-1.17-6.14-3.53-7.81s-6.04-2.51-11.06-2.51h-21.67v20.2Z"></path><path class="cls-1" d="M2005.66,2104.21c-5.9,0-11.06-1.01-15.48-3.02s-7.83-4.81-10.24-8.41c-2.41-3.58-3.61-7.63-3.61-12.16s1.05-8.4,3.17-11.93c2.11-3.54,5.58-6.34,10.39-8.41,4.81-2.06,11.2-3.09,19.17-3.09h22.84v12.23h-21.52c-6.29,0-10.52,1.02-12.67,3.02-2.16,2.01-3.25,4.5-3.25,7.44,0,3.34,1.33,6,3.99,7.96,2.65,1.96,6.33,2.94,11.05,2.94s8.57-1.02,12.17-3.09c3.59-2.07,6.17-5.11,7.74-9.14l3.09,11.06c-1.77,4.62-4.93,8.2-9.51,10.76-4.57,2.55-10.34,3.83-17.32,3.83ZM2030.42,2103.17v-15.92l-1.02-3.39v-27.86c0-5.4-1.62-9.61-4.86-12.6-3.25-3-8.16-4.5-14.75-4.5-4.42,0-8.76.69-13.04,2.07-4.27,1.38-7.89,3.29-10.83,5.75l-7.23-13.42c4.23-3.24,9.27-5.67,15.11-7.3,5.84-1.62,11.92-2.43,18.2-2.43,11.39,0,20.22,2.73,26.45,8.18,6.24,5.45,9.36,13.88,9.36,25.28v46.13h-17.4Z"></path><path class="cls-1" d="M2070.66,2131.77v-107.31h17.53v18.58l-.59,20.93,1.48,20.93v46.87h-18.42ZM2114.29,2104.21c-6.38,0-12.21-1.48-17.47-4.42-5.25-2.95-9.43-7.4-12.52-13.34-3.1-5.95-4.65-13.49-4.65-22.62s1.49-16.8,4.5-22.7c3-5.9,7.1-10.29,12.31-13.19,5.2-2.9,11.15-4.35,17.83-4.35,7.76,0,14.62,1.68,20.57,5.01,5.94,3.34,10.66,8.02,14.15,14.01,3.49,5.99,5.24,13.07,5.24,21.23s-1.75,15.25-5.24,21.3c-3.49,6.04-8.21,10.73-14.15,14.08-5.95,3.34-12.8,5.01-20.57,5.01ZM2112.23,2088.43c4.42,0,8.37-.98,11.86-2.95,3.48-1.96,6.26-4.81,8.33-8.55,2.06-3.73,3.09-8.1,3.09-13.11s-1.03-9.51-3.09-13.19c-2.07-3.69-4.85-6.51-8.33-8.48-3.49-1.96-7.44-2.95-11.86-2.95s-8.41.99-11.94,2.95-6.34,4.79-8.4,8.48c-2.07,3.68-3.1,8.08-3.1,13.19s1.03,9.38,3.1,13.11c2.06,3.73,4.86,6.58,8.4,8.55,3.53,1.97,7.51,2.95,11.94,2.95Z"></path><path class="cls-1" d="M2185.92,2103.17v-67.51l4.28,4.42h-31.99v-15.62h73.7v15.62h-31.84l4.27-4.42v67.51h-18.43Z"></path><path class="cls-1" d="M2245.32,2103.17v-78.71h18.42v51.88l43.48-51.88h16.8v78.71h-18.43v-51.88l-43.34,51.88h-16.94Z"></path><path class="cls-1" d="M2348.79,2131.77v-107.31h17.53v18.58l-.59,20.93,1.48,20.93v46.87h-18.42ZM2392.42,2104.21c-6.38,0-12.21-1.48-17.47-4.42-5.25-2.95-9.43-7.4-12.52-13.34-3.1-5.95-4.65-13.49-4.65-22.62s1.49-16.8,4.5-22.7c3-5.9,7.1-10.29,12.31-13.19,5.2-2.9,11.15-4.35,17.83-4.35,7.76,0,14.62,1.68,20.57,5.01,5.94,3.34,10.66,8.02,14.15,14.01,3.49,5.99,5.24,13.07,5.24,21.23s-1.75,15.25-5.24,21.3-8.21,10.73-14.15,14.08c-5.95,3.34-12.8,5.01-20.57,5.01ZM2390.36,2088.43c4.42,0,8.37-.98,11.86-2.95,3.48-1.96,6.26-4.81,8.33-8.55,2.06-3.73,3.09-8.1,3.09-13.11s-1.03-9.51-3.09-13.19c-2.07-3.69-4.85-6.51-8.33-8.48-3.49-1.96-7.44-2.95-11.86-2.95s-8.41.99-11.94,2.95-6.34,4.79-8.4,8.48c-2.07,3.68-3.1,8.08-3.1,13.19s1.03,9.38,3.1,13.11c2.06,3.73,4.86,6.58,8.4,8.55,3.53,1.97,7.51,2.95,11.94,2.95Z"></path></g><g><g><polygon class="cls-1" points="402.62 1744.92 512.78 1744.92 423.36 1936.99 509.2 1939.14 600.41 1734.55 600.41 1671.6 402.62 1671.6 402.62 1744.92"></polygon><polygon class="cls-1" points="913.37 1665.88 811.79 1665.88 733.47 1771.39 733.47 1665.88 647.63 1665.88 647.63 1937.71 733.47 1937.71 733.47 1828.98 812.86 1937.71 923.75 1937.71 806.78 1795.72 913.37 1665.88"></polygon><g><path class="cls-1" d="M1108.36,1751.96c-2.84-2.71-5.96-5.11-9.36-7.21-2.27-1.4-4.62-2.62-7.07-3.68,2.44,1.05,4.8,2.28,7.07,3.68,3.4,2.1,6.52,4.51,9.36,7.21Z"></path><path class="cls-1" d="M1086.28,1739c1.29.39,2.56.83,3.8,1.31-1.24-.48-2.51-.92-3.8-1.31Z"></path><path class="cls-1" d="M1007.08,1801.44c0-1.61.04-3.19.12-4.76-.08,1.56-.12,3.15-.12,4.76Z"></path><path class="cls-1" d="M1124.34,1777.71c.44,1.35.84,2.73,1.2,4.13-.36-1.4-.76-2.78-1.2-4.13Z"></path><path class="cls-1" d="M1124.34,1777.71c-1.1-3.38-2.45-6.62-4.05-9.71-1.65-3.18-3.53-6.12-5.59-8.86,2.06,2.74,3.93,5.67,5.59,8.86,1.6,3.09,2.95,6.33,4.05,9.71Z"></path><path class="cls-1" d="M1008.16,1815.29c-.6-3.68-.95-7.5-1.05-11.46.1,3.97.45,7.79,1.05,11.46Z"></path><path class="cls-1" d="M1127.49,1792.77c.24,2.27.39,4.6.45,6.98-.06-2.38-.21-4.71-.45-6.98Z"></path><path class="cls-1" d="M1125.54,1781.84c.36,1.4.68,2.82.96,4.27-.28-1.45-.6-2.87-.96-4.27Z"></path><path class="cls-1" d="M1124.34,1826.27c-.44,1.34-.92,2.67-1.44,3.97.52-1.3,1-2.62,1.44-3.97Z"></path><path class="cls-1" d="M1127.94,1799.75c.02.79.03,1.59.03,2.4h0c0-.8-.01-1.6-.03-2.4Z"></path><path class="cls-1" d="M1113.68,1846.15c2.48-3.09,4.68-6.49,6.6-10.2.49-.95.96-1.92,1.4-2.9-.45.98-.91,1.95-1.4,2.9-1.93,3.71-4.13,7.11-6.6,10.2Z"></path><path class="cls-1" d="M1125.54,1822.18c-.36,1.39-.76,2.75-1.2,4.1.44-1.34.84-2.71,1.2-4.1Z"></path><path class="cls-1" d="M1206.84,1744.75c-7.28-17.29-17.59-32.24-30.94-44.89-13.36-12.64-29.21-22.41-47.57-29.33-18.36-6.91-38.62-10.37-60.8-10.37s-41.31,3.58-59.55,10.73c-18.24,7.16-34.16,17.11-47.75,29.87-13.59,12.76-24.15,27.72-31.66,44.89-7.51,17.17-11.27,35.89-11.27,56.16s3.63,39.76,10.91,57.05c7.27,17.29,17.58,32.25,30.94,44.89,13.36,12.64,29.2,22.42,47.57,29.33,18.35,6.91,38.62,10.37,60.8,10.37s41.31-3.58,59.55-10.73c18.24-7.15,34.16-17.1,47.75-29.86,13.59-12.75,24.15-27.72,31.66-44.89,7.51-17.17,11.27-35.88,11.27-56.15s-3.64-39.76-10.91-57.05ZM1127.97,1802.15c0,3.95-.25,7.77-.75,11.45-.4,2.95-.96,5.81-1.68,8.58-.36,1.39-.76,2.75-1.2,4.1-.44,1.34-.92,2.67-1.44,3.97-.38.95-.79,1.88-1.21,2.81-.45.98-.91,1.95-1.4,2.9-1.93,3.71-4.13,7.11-6.6,10.2-3.3,4.12-7.09,7.69-11.38,10.71-1.07.75-2.17,1.47-3.3,2.16-.57.34-1.14.68-1.72,1-1.73.96-3.52,1.83-5.35,2.6-1.22.51-2.47.99-3.73,1.41-1.27.43-2.56.81-3.87,1.16-5.25,1.37-10.85,2.06-16.81,2.06-3.73,0-7.31-.27-10.76-.82-2.76-.44-5.42-1.05-8-1.84-.64-.2-1.28-.41-1.92-.62-3.8-1.31-7.4-3.02-10.8-5.12-1.13-.7-2.24-1.43-3.31-2.2-2.14-1.53-4.16-3.2-6.06-5.01-3.79-3.61-7.09-7.75-9.9-12.43-.7-1.17-1.37-2.37-2.01-3.61-.96-1.85-1.84-3.76-2.62-5.72-.52-1.31-1-2.64-1.44-3.99-1.1-3.38-1.95-6.91-2.55-10.59-.6-3.68-.95-7.5-1.05-11.46-.02-.79-.03-1.59-.03-2.4,0-1.61.04-3.19.12-4.76.36-7.02,1.53-13.56,3.51-19.6.88-2.69,1.92-5.28,3.13-7.77.3-.62.61-1.24.93-1.85,1.28-2.44,2.69-4.75,4.22-6.93,2.3-3.26,4.89-6.22,7.76-8.88,2.87-2.66,6.03-5.02,9.48-7.08,2.29-1.37,4.67-2.57,7.12-3.6,2.45-1.03,4.98-1.89,7.59-2.57,1.96-.51,3.96-.93,6-1.25,1.36-.21,2.74-.39,4.15-.51,2.1-.19,4.25-.29,6.44-.29,6.7,0,12.96.89,18.76,2.66,1.29.39,2.56.83,3.8,1.31.62.24,1.24.49,1.85.76,2.44,1.05,4.8,2.28,7.07,3.68,3.4,2.1,6.52,4.51,9.36,7.21.95.9,1.87,1.84,2.75,2.81,1.27,1.38,2.45,2.86,3.59,4.37,2.06,2.74,3.93,5.67,5.59,8.86,1.6,3.09,2.95,6.33,4.05,9.71.44,1.35.84,2.73,1.2,4.13s.68,2.82.96,4.27c.42,2.17.75,4.39.99,6.67.24,2.27.39,4.6.45,6.98.02.79.03,1.59.03,2.4h0Z"></path><path class="cls-1" d="M1111.11,1754.76c1.26,1.38,2.45,2.86,3.59,4.37-1.14-1.52-2.32-2.99-3.59-4.37Z"></path><path class="cls-1" d="M1097.29,1860.02c-1.73.96-3.52,1.83-5.35,2.6,1.83-.77,3.62-1.64,5.35-2.6Z"></path><path class="cls-1" d="M1122.9,1830.24c-.38.95-.79,1.88-1.21,2.81.42-.93.83-1.86,1.21-2.81Z"></path><path class="cls-1" d="M1056.77,1866.43c-2.76-.44-5.42-1.05-8-1.84,2.58.79,5.25,1.4,8,1.84Z"></path><path class="cls-1" d="M1088.2,1864.04c-1.27.43-2.56.81-3.87,1.16,1.31-.34,2.6-.73,3.87-1.16Z"></path><path class="cls-1" d="M1127.97,1802.15h0c0,3.95-.25,7.77-.75,11.45.5-3.68.75-7.5.75-11.45Z"></path><path class="cls-1" d="M1097.29,1860.02c.58-.32,1.15-.65,1.72-1,1.13-.69,2.23-1.41,3.3-2.16-1.07.75-2.17,1.47-3.3,2.16-.57.34-1.14.68-1.72,1Z"></path><path class="cls-1" d="M1032.74,1856.64c1.07.77,2.17,1.5,3.31,2.2,3.4,2.1,7,3.81,10.8,5.12-3.8-1.31-7.4-3.02-10.8-5.12-1.13-.7-2.24-1.43-3.31-2.2Z"></path><path class="cls-1" d="M1091.94,1862.62c-1.22.51-2.47.99-3.73,1.41,1.27-.43,2.51-.9,3.73-1.41Z"></path><path class="cls-1" d="M1056.94,1737.14c1.36-.21,2.74-.39,4.15-.51-1.4.13-2.78.3-4.15.51Z"></path><path class="cls-1" d="M1043.35,1740.97c2.45-1.03,4.98-1.89,7.59-2.57-2.61.69-5.14,1.54-7.59,2.57Z"></path><path class="cls-1" d="M1043.35,1740.97c-2.45,1.03-4.82,2.23-7.12,3.6-3.44,2.06-6.6,4.42-9.48,7.08,2.87-2.66,6.03-5.02,9.48-7.08,2.29-1.37,4.67-2.57,7.12-3.6Z"></path><path class="cls-1" d="M1010.71,1777.08c.88-2.69,1.92-5.28,3.13-7.77-1.2,2.49-2.25,5.08-3.13,7.77Z"></path><path class="cls-1" d="M1012.16,1829.87c-.52-1.31-1-2.64-1.44-3.99.44,1.35.92,2.68,1.44,3.99Z"></path><path class="cls-1" d="M1032.74,1856.64c-2.14-1.53-4.16-3.2-6.06-5.01,1.9,1.8,3.92,3.47,6.06,5.01Z"></path><path class="cls-1" d="M1012.16,1829.87c.78,1.96,1.65,3.87,2.62,5.72.64,1.24,1.31,2.44,2.01,3.61-.7-1.17-1.37-2.37-2.01-3.61-.96-1.85-1.84-3.76-2.62-5.72Z"></path><path class="cls-1" d="M1018.99,1760.53c-1.53,2.18-2.94,4.49-4.22,6.93-.32.61-.63,1.23-.93,1.85.3-.62.61-1.24.93-1.85,1.28-2.44,2.69-4.75,4.22-6.93Z"></path></g><polygon class="cls-1" points="1409.82 1804.66 1347.94 1665.88 1257.09 1665.88 1257.09 1937.71 1336.14 1937.71 1336.14 1790.71 1409.84 1936.45 1482.07 1791.07 1482.07 1937.71 1561.11 1937.71 1561.11 1665.88 1471.69 1665.88 1409.82 1804.66"></polygon><polygon class="cls-1" points="1790.36 1809.66 1684.5 1665.88 1611.18 1665.88 1611.18 1937.71 1690.22 1937.71 1690.22 1794.28 1796.09 1937.71 1869.42 1937.71 1869.42 1665.88 1790.36 1665.88 1790.36 1809.66"></polygon><path class="cls-1" d="M2095.82,1665.88h-89.43l-104.79,271.83h85.48l17.17-56.15h88.34l17.17,56.15h91.2l-105.15-271.83ZM2023.92,1817.17l24.68-79.76,24.32,79.76h-49Z"></path><polygon class="cls-1" points="2184.88 1665.88 2184.88 1735.63 2264.64 1735.63 2264.64 1937.71 2352.27 1937.71 2352.27 1735.63 2432.03 1735.63 2432.03 1665.88 2184.88 1665.88"></polygon></g><g><polygon class="cls-1" points="734.97 770.2 734.97 992.37 1089.44 992.37 716.59 1365.22 716.59 1514.71 865.68 1514.71 1312.62 1067.77 1312.62 919.54 1312.81 919.54 1312.81 770.2 734.97 770.2"></polygon><polygon class="cls-1" points="1969.08 1514.29 1985.4 1514.71 2118.05 1514.71 1744.78 1141.44 1967.5 918.73 1967.5 770.17 1817.47 770.17 1595.49 992.15 1594.83 991.49 1594.83 770.97 1368.21 770.97 1368.21 1514.09 1520.59 1363.06 1595.49 1290.73 1819.06 1514.29 1969.08 1514.29"></polygon></g></g></svg> 