<?xml version="1.0" encoding="UTF-8"?> <svg xmlns="http://www.w3.org/2000/svg" width="100" height="100" viewBox="0 0 100 100" fill="none"><path fill-rule="evenodd" clip-rule="evenodd" d="M50 100C77.6142 100 100 77.6142 100 50C100 22.3858 77.6142 0 50 0C22.3858 0 0 22.3858 0 50C0 77.6142 22.3858 100 50 100ZM69.546 28.8203C68.2422 27.6357 62.6144 24.0996 50.8718 24.0484C50.8718 24.0484 36.9668 23.1348 30.2169 29.2487C26.4601 32.958 25.1945 38.474 25.0557 45.2053C25.0511 45.429 25.0458 45.6594 25.0404 45.8961C24.8835 52.7808 24.6071 64.9095 36.5105 68.2164C36.5105 68.2164 36.4621 77.763 36.4565 78.6021C36.4565 79.1888 36.5496 79.5902 36.8849 79.6731C37.1261 79.7318 37.4874 79.607 37.7947 79.3006C39.7635 77.3234 46.0664 69.7195 46.0664 69.7195C54.5234 70.2718 61.2519 68.602 61.9755 68.3654C62.1459 68.3107 62.3912 68.2535 62.6964 68.1823L62.6965 68.1823C65.4481 67.5407 73.0657 65.7647 74.4715 54.4092C76.0854 41.4057 73.8783 32.5296 69.546 28.8203ZM48.6642 31.509C48.6677 31.0078 49.0769 30.6044 49.5781 30.6078C54.1635 30.6398 58.0456 32.1675 61.1618 35.2053C64.3079 38.2723 65.8583 42.4441 65.8976 47.6085C65.9014 48.1097 65.4982 48.5191 64.997 48.5229C64.4958 48.5267 64.0864 48.1235 64.0826 47.6223C64.0461 42.8319 62.622 39.1636 59.8948 36.505C57.1377 33.8173 53.7154 32.4518 49.5654 32.4229C49.0642 32.4194 48.6607 32.0102 48.6642 31.509ZM51.0378 34.441C50.4043 34.3946 49.8532 34.8705 49.8069 35.504C49.7605 36.1374 50.2365 36.6885 50.8699 36.7348C53.7875 36.9484 55.9373 37.9195 57.4673 39.5893C59.0081 41.273 59.7712 43.3729 59.7148 45.9776C59.7011 46.6125 60.2047 47.1384 60.8397 47.1522C61.4747 47.1659 62.0005 46.6623 62.0143 46.0273C62.0821 42.8952 61.1459 40.2022 59.164 38.0365L59.1636 38.0361C57.1547 35.8432 54.4061 34.6875 51.0378 34.441ZM52.194 38.8947C51.6934 38.8686 51.2665 39.2532 51.2404 39.7537C51.2143 40.2542 51.5989 40.6812 52.0994 40.7073C53.4339 40.7769 54.3224 41.1653 54.8987 41.7611C55.4791 42.3613 55.8626 43.2957 55.9321 44.697C55.9569 45.1976 56.3829 45.5833 56.8835 45.5585C57.384 45.5336 57.7697 45.1077 57.7449 44.6071C57.6617 42.9296 57.1868 41.5161 56.2033 40.4993C55.2156 39.478 53.8346 38.9803 52.194 38.8947ZM53.9988 54.5284C53.4046 55.2604 52.301 55.1673 52.301 55.1673C44.2352 53.1082 42.0765 44.938 42.0765 44.938C42.0765 44.938 41.9796 43.8345 42.7153 43.2403L44.1728 42.0818C44.8955 41.5249 45.3564 40.1736 44.6207 38.854C44.0564 37.8634 43.4429 36.9017 42.7824 35.9726C42.1407 35.0962 40.646 33.3016 40.6404 33.2961C39.9196 32.4458 38.8598 32.2484 37.7423 32.8304C37.7389 32.8304 37.7342 32.8319 37.7298 32.8334C37.7256 32.8347 37.7217 32.836 37.719 32.836C36.6075 33.4764 35.6052 34.29 34.75 35.2462C34.7471 35.252 34.7442 35.2548 34.7413 35.2576C34.7386 35.2601 34.736 35.2627 34.7333 35.2676C34.0429 36.1008 33.6477 36.9175 33.5478 37.7178C33.527 37.8358 33.5198 37.9558 33.5263 38.0754C33.5226 38.4288 33.5764 38.7805 33.6856 39.1166L33.7238 39.1427C34.0721 40.3794 34.9437 42.4394 36.838 45.874C37.9215 47.8606 39.171 49.7519 40.5734 51.5278C41.276 52.418 42.029 53.2672 42.8289 54.0712L42.8577 54.1001L42.8578 54.1002C42.8767 54.1193 42.8954 54.1383 42.9146 54.1568L43.0003 54.2425L43.086 54.3282L43.1716 54.4139C43.9756 55.2138 44.8248 55.9669 45.715 56.6694C47.4911 58.072 49.3828 59.3216 51.3698 60.4048C54.8034 62.2991 56.8653 63.1707 58.1001 63.519L58.1262 63.5572C58.4623 63.6667 58.8139 63.7208 59.1674 63.7174C59.2871 63.7232 59.407 63.7157 59.525 63.6951C60.3265 63.6001 61.1427 63.2055 61.9734 62.5114C61.9763 62.5098 61.9784 62.5082 61.9801 62.5066C61.9813 62.5055 61.9823 62.5045 61.9834 62.5034C61.9862 62.5005 61.9889 62.4975 61.9948 62.4946C62.9509 61.6392 63.7648 60.637 64.4059 59.5257C64.4059 59.523 64.4069 59.5191 64.408 59.5151L64.4081 59.5149L64.4081 59.5147C64.4093 59.5103 64.4105 59.5057 64.4105 59.5024C64.9926 58.3849 64.7952 57.3251 63.9402 56.6033C63.9391 56.6033 63.8694 56.5459 63.7514 56.4486C63.2668 56.0494 61.9684 54.9796 61.2637 54.4614C60.3355 53.8009 59.3747 53.1874 58.3851 52.623C57.0646 51.8873 55.7161 52.3483 55.1573 53.071L53.9988 54.5284Z" fill="black"></path></svg> 