<?xml version="1.0" encoding="UTF-8"?> <svg xmlns="http://www.w3.org/2000/svg" width="100" height="20" viewBox="0 0 100 20" fill="none"> <g clip-path="url(#clip0_4898_13415)"> <path d="M30.1081 5.3086V8.87417H37.241V12.4166H30.1081V17.9733H25.5376V1.76618H38.2105V5.3086H30.1081Z" fill="#0E0F12"></path> <path d="M47.804 18.2974C45.4033 18.2974 43.5336 17.6414 42.1947 16.3294C40.8713 15.0174 40.2096 13.1575 40.2096 10.7496V1.76618H44.7801V10.6107C44.7801 13.2038 45.8035 14.5004 47.8502 14.5004C49.8815 14.5004 50.8972 13.2038 50.8972 10.6107V1.76618H55.3985V10.7496C55.3985 13.1575 54.729 15.0174 53.3902 16.3294C52.0668 17.6414 50.2047 18.2974 47.804 18.2974Z" fill="#0E0F12"></path> <path d="M65.5583 13.6669H63.0653V17.9733H58.4947V1.76618H65.8814C67.3434 1.76618 68.613 2.01315 69.6902 2.50709C70.7675 2.98558 71.5985 3.68017 72.1832 4.59086C72.768 5.48611 73.0604 6.54343 73.0604 7.76283C73.0604 8.93592 72.7834 9.96238 72.2294 10.8422C71.6908 11.7066 70.9136 12.3857 69.898 12.8796L73.3836 17.9733H68.4899L65.5583 13.6669ZM68.4437 7.76283C68.4437 7.0065 68.2052 6.41995 67.7282 6.00319C67.251 5.58644 66.5432 5.37806 65.6045 5.37806H63.0653V10.1245H65.6045C66.5432 10.1245 67.251 9.92381 67.7282 9.52246C68.2052 9.10571 68.4437 8.51916 68.4437 7.76283Z" fill="#0E0F12"></path> <path d="M90.9555 1.76618V17.9733H87.1929L80.0601 9.33724V17.9733H75.5819V1.76618H79.3445L86.4774 10.4023V1.76618H90.9555Z" fill="#0E0F12"></path> <path d="M94.1795 1.76618H98.75V17.9733H94.1795V1.76618Z" fill="#0E0F12"></path> <path d="M13.2473 0.499441H5.69712C2.55069 0.499441 0 3.05781 0 6.21373V13.7867C0 16.9426 2.55069 19.501 5.69712 19.501H13.2473C16.3937 19.501 18.9444 16.9426 18.9444 13.7867V6.21373C18.9444 3.05781 16.3937 0.499441 13.2473 0.499441Z" fill="#CE1A30"></path> <path fill-rule="evenodd" clip-rule="evenodd" d="M11.8028 7.1408C11.0497 6.59368 10.2481 5.91474 9.4256 5.02897C8.56392 4.10136 7.68864 3.52117 6.85658 3.23882C6.83139 3.23027 6.80637 3.22272 6.78105 3.21474C3.53853 2.18114 0.986307 5.67153 2.5623 10.7091C2.95484 11.9634 3.5155 12.9091 4.36537 13.6236C4.47962 13.7196 4.58646 13.8047 4.68656 13.8802L3.87268 15.6308C3.71447 15.9711 3.86126 16.3757 4.20057 16.5344C4.53988 16.6931 4.94322 16.5458 5.10144 16.2055L5.8779 14.5353C5.9092 14.5473 5.93922 14.5591 5.96815 14.5711C6.28164 14.7006 6.61969 14.8169 6.9842 14.9215C7.00922 14.9287 7.03424 14.9358 7.05968 14.9429C7.79541 15.1489 8.63776 15.3084 9.60608 15.4318C10.4442 15.5387 11.2274 15.5492 11.9474 15.4823C11.9724 15.4803 11.9973 15.4776 12.0224 15.4752C12.6425 15.4125 13.2146 15.2917 13.7307 15.1231C13.7307 15.1231 13.873 15.0899 14.1053 15.0007L14.6654 16.2055C14.8236 16.5458 15.2269 16.6931 15.5663 16.5344C15.9056 16.3757 16.0524 15.9711 15.8942 15.6308L15.3009 14.3547C15.3381 14.3283 15.3756 14.3011 15.4133 14.273C16.3058 13.6074 16.8143 12.7402 16.8363 11.8309C16.8953 9.41455 14.6689 9.19802 11.8028 7.1408ZM11.9201 13.8811C13.5083 13.7965 14.6595 13.3471 14.7252 12.6944C14.7957 11.9943 13.5946 11.2724 11.8678 10.8852C11.4366 10.7887 10.9729 10.7128 10.4872 10.6636C9.09573 10.5226 7.83215 10.6303 6.98996 10.9125C6.36231 11.1226 5.96793 11.4294 5.9302 11.8031C5.88748 12.2257 6.30817 12.6556 7.02655 13.0153C7.79713 13.4013 8.91101 13.7066 10.1679 13.8339C10.786 13.8968 11.3784 13.9101 11.9201 13.8811Z" fill="white"></path> </g> <defs> <clipPath id="clip0_4898_13415"> <rect width="98.75" height="20" fill="white"></rect> </clipPath> </defs> </svg> 